<?xml version="1.0" standalone="no"?>
<!DOCTYPE svg PUBLIC "-//W3C//DTD SVG 20010904//EN"
 "http://www.w3.org/TR/2001/REC-SVG-20010904/DTD/svg10.dtd">
<svg version="1.0" xmlns="http://www.w3.org/2000/svg"
 width="562.000000pt" height="562.000000pt" viewBox="0 0 562.000000 562.000000"
 preserveAspectRatio="xMidYMid meet">
<metadata>
Created by potrace 1.14, written by Peter Selinger 2001-2017
</metadata>
<g transform="translate(0.000000,562.000000) scale(0.100000,-0.100000)"
fill="#000000" stroke="none">
<path d="M780 5206 c0 -8 15 -17 34 -20 117 -22 282 -151 332 -258 l29 -63 3
-2055 c3 -1898 2 -2060 -14 -2118 -21 -81 -80 -168 -147 -220 -62 -48 -167
-100 -219 -108 -23 -4 -38 -12 -38 -20 0 -12 111 -14 685 -14 563 0 685 2 685
13 0 8 -21 18 -51 25 -134 31 -256 127 -316 250 l-38 76 -3 493 -3 493 26 53
c33 70 111 173 171 226 142 125 395 255 734 376 575 206 776 289 934 384 162
98 257 187 334 311 l22 35 -2 -1190 -3 -1190 -33 -66 c-57 -114 -174 -207
-307 -245 -36 -10 -65 -24 -65 -31 0 -10 141 -13 690 -13 588 0 690 2 690 14
0 9 -15 17 -39 21 -66 11 -178 71 -237 127 -56 53 -72 75 -109 158 -20 45 -20
61 -23 2095 -2 1375 1 2066 8 2098 28 132 122 246 256 309 45 21 91 38 103 38
12 0 21 6 21 15 0 13 -81 15 -665 15 -558 0 -665 -2 -665 -14 0 -7 14 -16 30
-20 17 -3 63 -21 103 -39 98 -45 187 -129 229 -215 l33 -67 3 -466 c3 -448 2
-470 -18 -525 -31 -89 -78 -161 -160 -244 -174 -177 -343 -264 -955 -490 -386
-142 -440 -164 -575 -227 -230 -109 -384 -224 -474 -357 l-26 -39 0 1019 c-1
1326 -2 1282 15 1337 20 67 57 125 117 184 53 51 169 118 227 129 17 4 31 13
31 20 0 12 -110 14 -680 14 -574 0 -680 -2 -680 -14z m3150 -1779 c-41 -209
-205 -390 -490 -541 -142 -74 -266 -126 -645 -266 -575 -212 -680 -261 -875
-407 -47 -35 -103 -86 -125 -113 l-40 -49 -3 74 c-2 63 1 83 23 128 33 70 111
173 171 226 142 125 395 255 734 376 575 206 776 289 934 384 121 73 227 161
278 230 50 66 58 57 38 -42z"/>
</g>
</svg>
